<svg xmlns="http://www.w3.org/2000/svg" version="1.1"
     width="512" height="512" x="0" y="0" viewBox="0 0 512 512"
     style="enable-background:new 0 0 512 512" xml:space="preserve" class="">
    <g>
        <path fill="#fdc77c"
              d="M187 87.3c0-10-8.1-18.1-18.1-18.1H20.1C10.1 69.3 2 77.4 2 87.3v337.3c0 10 8.1 18.1 18.1 18.1h400.7c10 0 18.1-8.1 18.1-18.1V123.5c0-10-8.1-18.1-18.1-18.1H205.1c-10 0-18.1-8.1-18.1-18.1z"/>
        <path fill="#fbd984"
              d="M420.8 105.4H205.1c-10 0-18.1-8.1-18.1-18.1s-8-18-18-18H20.1c-10 0-18.1 8.1-18.1 18v9.2c0-10 8.1-18.1 18.1-18.1H169c10 0 18.1 8.1 18.1 18.1s8.1 18.1 18.1 18.1h215.7c10 0 18.1 8.1 18.1 18.1v-9.2c-.1-10-8.2-18.1-18.2-18.1zM326.6 169.6l.1-.3c2.3-8.1 9.8-13.8 18.1-13.8h147.8c11.7 0 19.9 11 16.7 22.4l-71.4 251c-2.3 8.1-9.8 13.8-18.1 13.8H20.2c-11.7 0-19.9-11-16.7-22.4L67 197.1c2.3-8.1 9.8-13.8 18.1-13.8h223.5c8.2.1 15.7-5.6 18-13.7z"/>
        <path fill="#ffe4a9"
              d="M3.4 428.2 66.9 205c2.3-8.1 9.8-13.8 18.1-13.8h223.5c8.3 0 15.8-5.7 18.1-13.8l.1-.3c2.3-8.1 9.8-13.8 18.1-13.8h147.8c8.5 0 15.1 5.8 16.9 13.4 2.4-11-5.6-21.2-16.9-21.2H344.8c-8.3 0-15.8 5.7-18.1 13.8l-.1.3c-2.3 8.1-9.8 13.8-18.1 13.8H85c-8.3 0-15.8 5.7-18.1 13.8L3.4 420.4c-.9 3.1-.9 6.2-.2 9 .1-.4.1-.8.2-1.2z"/>
    </g>
</svg>
